<?xml version="1.0" encoding="UTF-8" standalone="no"?>
<svg xmlns="http://www.w3.org/2000/svg" height="350.00" viewBox="0 0 400.00 350.00" width="400.00" version="1.1">
<path stroke-linejoin="round" d="M 20,160 C 20,100 52,46 102,18 C 152,-10 214,-8 264,20 C 314,48 346,102 350,160 C 354,218 330,276 288,310 C 266,328 240,338 212,340 C 220,340 228,344 234,350 L 234,350 C 234,350 234,350 222,350 L 170,350 C 158,350 148,340 148,328 L 148,316 C 148,304 138,294 126,294 L 110,294 C 76,286 46,264 28,232 C 10,200 6,162 16,128 C 18,118 20,138 20,160 Z M 186,80 C 214,80 240,94 256,118 C 272,142 274,172 264,198 C 254,224 232,242 206,248 C 180,254 152,244 134,224 C 116,204 110,176 118,152 C 126,128 146,110 170,104 C 178,102 186,100 194,102 C 202,104 210,108 216,116 C 222,124 224,134 220,144 C 216,154 208,160 198,162 C 188,164 178,158 172,150 C 166,142 166,130 172,122 C 178,114 190,112 198,118 C 206,124 208,136 202,144 L 186,80 Z" stroke="#000" stroke-width="8" fill="none"/>
</svg>
