<?xml version="1.0" encoding="UTF-8" standalone="no"?>
<svg xmlns="http://www.w3.org/2000/svg" height="310.00" viewBox="0 0 450.00 310.00" width="450.00" version="1.1">
<path stroke-linejoin="round" d="M 20,50 C 20,32 34,18 52,18 L 220,18 C 238,18 252,32 252,50 L 252,76 C 252,94 266,108 284,108 L 400,108 C 418,108 432,122 432,140 L 432,196 C 432,214 418,228 400,228 L 356,228 C 338,228 324,242 324,260 L 324,278 C 324,296 310,310 292,310 L 52,310 C 34,310 20,296 20,278 L 20,240 C 20,222 6,208 6,208 L 6,208 C 6,208 6,208 6,196 L 6,140 C 6,122 20,108 38,108 L 80,108 C 98,108 112,94 112,76 L 112,50 C 112,32 98,18 80,18 L 52,18 C 34,18 20,32 20,50 Z M 160,140 C 160,128 168,118 180,116 C 192,114 204,122 208,134 C 212,146 206,160 194,166 C 182,172 168,166 162,154 C 160,150 160,145 160,140 Z" stroke="#000" stroke-width="8" fill="none"/>
</svg>
