<?xml version="1.0" encoding="UTF-8" standalone="no"?>
<svg xmlns="http://www.w3.org/2000/svg" height="500.00" viewBox="0 0 270.00 500.00" width="270.00" version="1.1">
<path stroke-linejoin="round" d="M 230,16 C 244,16 256,28 256,42 L 256,200 C 256,210 250,218 242,222 L 228,230 C 220,234 216,244 218,254 L 222,268 C 224,278 220,288 212,294 L 198,302 C 190,308 186,318 188,328 L 192,342 C 194,352 190,362 182,368 L 166,378 C 158,384 154,394 156,404 L 158,414 C 160,424 154,434 144,438 L 120,446 C 108,450 94,448 84,440 L 68,428 C 58,420 44,418 34,424 L 24,430 C 14,436 8,428 8,418 L 8,390 C 8,380 14,372 24,370 L 40,366 C 50,364 58,356 58,346 L 58,330 C 58,320 66,312 76,312 L 96,312 C 106,312 114,304 114,294 L 114,278 C 114,268 122,260 132,260 L 150,260 C 160,260 168,252 168,242 L 168,224 C 168,214 176,206 186,206 L 202,206 C 212,206 220,198 220,188 L 220,168 C 220,158 228,150 238,150 L 248,150 C 258,150 266,142 266,132 L 266,60 C 266,44 254,30 238,26 Z" stroke="#000" stroke-width="8" fill="none"/>
</svg>
