<?xml version="1.0" encoding="UTF-8" standalone="no"?>
<svg xmlns="http://www.w3.org/2000/svg" height="310.00" viewBox="0 0 420.00 310.00" width="420.00" version="1.1">
<path stroke-linejoin="round" d="M 30,50 C 30,30 46,14 66,14 L 320,14 C 340,14 356,30 356,50 L 356,76 C 356,96 372,112 392,112 L 400,112 C 412,112 420,120 420,132 L 420,178 C 420,190 412,198 400,198 L 356,198 C 336,198 320,214 320,234 L 320,258 C 320,278 304,294 284,294 L 66,294 C 46,294 30,278 30,258 L 30,234 C 30,214 14,198 14,198 L 14,198 C 14,198 14,198 14,186 L 14,132 C 14,120 22,112 34,112 L 80,112 C 100,112 116,96 116,76 L 116,50 C 116,30 100,14 80,14 L 30,14 C 30,14 30,32 30,50 Z" stroke="#000" stroke-width="8" fill="none"/>
</svg>
