<?xml version="1.0" encoding="UTF-8" standalone="no"?>
<svg xmlns="http://www.w3.org/2000/svg" viewBox="0 0 1328.6912 877.21344" version="1.1">
<path stroke-linejoin="round" d="M 2158.24,1284.7558 C 2212.0416,1224.8641 2259.7355,1169.1501 2309.8791,1115.7695 C 2333.5635,1090.5562 2356.9732,1085.8584 2427.4218,1056.8485 C 2454.303,1045.7792 2474.5447,1019.6828 2480.0619,1008.0967 C 2486.5084,994.55908 2490.1193,985.0034 2490.8291,969.81309 C 2494.1071,899.66281 2496.3215,827.77355 2490.8291,758.05673 C 2489.875,745.94557 2488.0318,730.69759 2478.8655,723.36218 C 2453.5268,703.08474 2427.0877,683.20168 2397.5128,669.22673 C 2390.798,666.0538 2372.8056,668.28822 2366.7064,676.704 C 2271.9612,807.43503 2185.9094,929.58094 2086.4582,1057.4467 C 2077.0403,1069.5555 2054.7102,1085.22 2040.6973,1090.3467 C 2022.0095,1097.1837 2002.2277,1102.3369 1982.3745,1100.2167 C 1961.1525,1097.9503 1937.6521,1090.8171 1920.1636,1078.6822 C 1898.5709,1063.6995 1882.9154,1037.3155 1867.2245,1016.4713 C 1836.2288,975.29551 1815.5492,935.38737 1781.0864,899.82582 C 1763.7144,881.89998 1727.0704,885.39826 1711.3981,907.60219 C 1664.3188,974.30258 1636.91,1008.9252 1584.8827,1081.9722 C 1570.9957,1101.4698 1569.416,1138.0609 1575.0127,1153.4549 C 1581.4306,1171.1076 1594.5781,1187.3347 1598.3418,1204.8985 C 1601.7563,1220.8329 1600.1379,1238.9401 1593.5564,1254.5476 C 1586.1803,1272.0395 1576.8265,1293.6259 1560.0582,1302.4022 C 1506.9322,1330.2079 1455.8139,1348.7229 1398.5491,1366.4076 C 1374.4611,1373.8465 1326.1972,1372.6151 1301.6436,1378.9695 C 1258.2693,1390.1945 1233.6941,1398.8824 1193.9709,1411.5704 C 1186.3714,1413.9977 1176.753,1433.501 1177.5209,1441.1804 C 1178.3481,1449.4525 1188.2474,1462.6464 1195.1672,1467.7994 C 1206.9905,1476.604 1221.0858,1482.8252 1235.8436,1487.5395 C 1249.7985,1491.9973 1268.2596,1494.7354 1295.9609,1482.4549 C 1398.6729,1436.9206 1463.5552,1407.8184 1569.9282,1358.6313 C 1594.3734,1347.3278 1641.7822,1299.2345 1648.8882,1254.2485 C 1658.8434,1191.225 1665.6759,1145.2748 1671.32,1082.2713 C 1672.623,1067.7258 1685.0104,1061.2874 1694.0509,1058.344 C 1702.1582,1055.7044 1715.0798,1059.4403 1722.7636,1065.5222 C 1793.519,1121.527 1869.3289,1171.1876 1936.3145,1221.6476 C 1942.127,1226.0262 1941.2703,1237.1647 1935.1182,1243.1822 C 1930.2219,1247.9715 1918.7294,1253.6667 1917.7709,1259.034 C 1916.7354,1264.8327 1927.4919,1284.6911 1928.5382,1292.2331 C 1937.0628,1353.6814 1941.0171,1401.2979 1944.39,1460.9204 C 1944.9002,1469.9389 1954.6747,1478.8974 1962.6346,1480.0622 C 1971.025,1481.2901 1984.748,1478.525 1991.0482,1471.0894 C 2043.1611,1409.5854 2101.9586,1347.408 2158.24,1284.7558 z" stroke="#000" stroke-width="8" fill="none"/>
<path stroke-linejoin="round" d="M 1939.6687,1358.6857 C 1943.1832,1387.1809 1953.1377,1423.9544 1961.0401,1451.865 C 1962.0662,1455.4891 1964.9736,1459.1955 1967.879,1460.9834 C 1969.9128,1462.2349 1973.5689,1462.017 1975.8576,1460.9834 C 1979.4579,1459.3575 1982.7234,1456.0901 1985.546,1453.0048 C 2045.9828,1386.9418 2105.3267,1319.7691 2165.6357,1253.5383 C 2178.8443,1239.0327 2191.9361,1224.3491 2206.0989,1210.7955 C 2227.2702,1190.5348 2259.7649,1165.1082 2277.6219,1145.5415" stroke="#000" stroke-width="8" fill="none"/>
</svg>