<?xml version="1.0" encoding="UTF-8" standalone="no"?>
<svg xmlns="http://www.w3.org/2000/svg" viewBox="0 0 963 752.71" version="1.1">
<path stroke-linejoin="round" stroke-linecap="round" d="m929.89,293.59c-2.54-3.81-5.7-8.44-9.42-13.79l-1.21.91-1.19.9c1.79,2.57,3.44,4.97,4.96,7.19,1.61,2.36,3.07,4.51,4.36,6.45,19.05,28.58,15.23,67.82,14.27,75.4v.09s-2,148.19-2,148.19c-.01,1.23-1,128.22-1,147.81,0,16.97-8.17,26.87-15.02,32.2l-.55.42-.03.69c-.58,12.41-6.01,19.52-10.47,23.31-8.94,7.58-19.87,7.35-24.15,6.9h-.09s-128.19.98-128.19.98h-249.96c-.22,0-22.16.17-51.02.17-44.12,0-101.47-.38-124.11-2.21-39.38-3.19-93.93-27.92-94.47-28.16-76.85-35.4-133.2-72.55-148.63-83.1-.02,0-.03-.02-.05-.03-1.93-1.32-3.28-2.25-4.01-2.77l-.11-.07c-8.26-4.8-50.07-29.1-61.96-35.39-2.52-1.35-5.2-2.85-7.93-4.44-10.69-6.24-16.41-18.19-14.58-30.44,1.12-7.49,2.64-17.01,4.51-28.28,3.48-20.85,11.62-37.34,17.83-47.5,3.81-6.22,8.77-11.51,14.74-15.7,9.66-6.8,28.51-19.13,46.31-25.33,17.92-6.23,22.07-8.45,34.4-15.03l.5-.27c2.68-1.42,5.71-3.03,9.28-4.91,17.09-8.95,21.32-19.54,24.72-28.05,1.91-4.77,3.3-18.32,3.54-28.69l1-145.35v-.1c-1.02-16.52,5.34-24.91,10.85-29.03,5.35-4,11.37-5.17,16.59-5.17s10.04,1.28,12.09,1.96l26.8,7.37.61-.87c5.26-7.47,13.97-12.39,23.3-13.17,13.65-1.14,40.9-.45,70.16,16.96,41.9,24.91,43.55,64.94,43.6,69.43l.26,20.91.57,46.46,170.41-3.7,2.1-.04c42.85-.81,185.19-3.46,217.66-3.46s41.85-8.26,50.97-15.57l.6-.47c4.67-3.75,6.34-13.46,4.43-16.38l-.14-.18c-8.77-9.85-25.68-37.72-26.4-38.9l-.79-1.29-.48-1.45c-.77-2.29-4.67-15.59-5.68-51.88-.55-19.72,7.3-28.11,13.99-31.68,15.44-8.25,33.79,3.8,37.31,6.29l1.66,1.18,34.42,44.85.16.21c5.6,7.66,24.79,33.9,41.83,57.94l1.19-.91,1.19-.91c-17.04-24.03-36.19-50.25-41.79-57.89l-34.76-45.29-.14-.18-2.02-1.44c-3.78-2.68-23.46-15.58-40.47-6.49-7.43,3.96-16.16,13.15-15.57,34.4,1.02,36.72,5.04,50.39,5.84,52.75l.53,1.6,1.02,1.75c.72,1.18,17.65,29.09,26.63,39.23.78,1.49-.06,9.3-3.83,12.33l-.62.48c-8.72,6.99-18.61,14.9-49.08,14.9-32.5,0-174.86,2.65-217.71,3.46l-2.11.04-167.39,3.64-.79-64.35c-.05-4.65-1.76-46.22-45.06-71.97-29.99-17.83-57.95-18.54-71.94-17.37-9.85.82-19.07,5.87-24.89,13.58l-24.71-6.79c-4.3-1.43-19.26-5.35-31.35,3.68-6.1,4.56-13.14,13.74-12.05,31.56l-1,145.28c-.23,9.89-1.62,23.35-3.32,27.61-3.22,8.06-7.23,18.08-23.34,26.51-3.57,1.88-6.61,3.5-9.28,4.92l-.52.28c-12.16,6.49-16.26,8.68-33.96,14.83-18.15,6.32-37.27,18.82-47.05,25.71-6.31,4.43-11.55,10.02-15.58,16.6-6.35,10.38-14.67,27.24-18.23,48.57-1.87,11.29-3.39,20.82-4.51,28.33-2.02,13.47,4.28,26.61,16.02,33.47,2.78,1.62,5.48,3.13,8.05,4.5,11.81,6.25,53.42,30.43,61.8,35.3.76.53,2.11,1.47,4.03,2.79,15.49,10.58,72.01,47.85,149.08,83.34.55.26,55.58,25.2,95.48,28.43,22.73,1.83,80.17,2.22,124.35,2.22,28.87,0,50.82-.17,51.03-.17h249.96l128.04-.99c4.72.48,16.56.68,26.32-7.61,4.83-4.1,10.7-11.7,11.49-24.76,7.26-5.83,15.64-16.4,15.64-34.14,0-19.58.99-146.56,1-147.78l1.99-148.02c.33-2.63.97-8.75.97-16.84,0-16.39-2.62-40.85-15.73-60.51Zm-749.2,96.18c-3.97,9.91-11.35,28.36-37.26,41.93-3.74,1.95-6.87,3.62-9.6,5.09l-.13.07c-12.94,6.89-18.3,9.74-38.1,16.63-15.2,5.29-32.79,17.08-39.65,21.9-2.94,2.07-5.38,4.67-7.25,7.73-4.06,6.64-11.32,20.38-14.22,37.84-1.87,11.21-3.36,20.57-4.44,27.82-.2,1.27.38,2.5,1.47,3.14,2.49,1.45,4.84,2.76,6.97,3.88,13.81,7.32,63,36,63.47,36.27l.53.31.46.33c.11.08,1.27.9,3.36,2.33.02,0,.03.02.05.03,15.37,10.47,71.02,47.11,145.42,81.39,2.11.94,52.03,23.11,85.48,25.83,35.82,2.9,171.45,1.96,172.8,1.95h250.06l130.43-1.01.63.14.21.04c.94.07,2.4-.04,3.27-.39l.56-.23.24-.55c.25-.55.66-1.86.66-4.39-.01-7.93,3.9-15.36,10.47-19.87,3.42-2.36,5.08-6.03,5.08-11.24,0-18.28.83-126.19,1-147.63l2.02-150.47.14-.95c.48-3.63,4.32-36.14-9.89-57.46-2.24-3.36-4.99-7.38-8.4-12.28l-1.19.9-1.2.91c3.36,4.84,6.08,8.82,8.29,12.13,13.84,20.76,9.6,54,9.42,55.41l-.17,1.1-2.02,150.21v.48c-.17,21.44-1,129.36-1,147.65,0,4.21-1.2,6.99-3.78,8.76-7.38,5.08-11.78,13.43-11.77,22.35,0,1.21-.11,2.02-.21,2.52-.35.05-.78.07-1.18.05l-.86-.19-130.76,1.01h-250.06c-1.37,0-136.86.95-172.55-1.95-32.95-2.67-82.41-24.64-84.48-25.56-74.25-34.22-129.77-70.78-145.01-81.17-2.03-1.39-3.15-2.17-3.29-2.27l-.55-.39-.69-.41c-.47-.28-49.73-29-63.59-36.34-2.09-1.1-4.4-2.39-6.88-3.92,1.08-7.24,2.57-16.58,4.44-27.77,2.82-16.96,9.87-30.32,13.82-36.78,1.65-2.7,3.81-5,6.41-6.83,6.76-4.75,24.07-16.36,38.91-21.52,20.03-6.97,25.44-9.85,38.53-16.83l.13-.07c2.73-1.47,5.85-3.12,9.58-5.07,26.89-14.09,34.54-33.2,38.66-43.49,4.7-11.75,5.54-33.03,5.68-39.3l1-146.23-.04-1.28c-.07-.9-.09-1.66-.08-2.29l35.48,9.8c5.77,1.58,11.99.7,17.1-2.43,4.58-2.83,7.91-7.19,9.41-12.34.23-.11.53-.2.87-.22,10.05-.85,30.22-.3,52.32,12.84,27.91,16.59,28.91,42.87,28.94,43.96l.93,75.54c.08,5.9,2.46,11.42,6.71,15.53,4.26,4.12,9.87,6.3,15.74,6.17l178.46-3.88c1.77-.03,182.65-3.5,219.16-3.5,42.12,0,58.73-13.34,69.72-22.16l.59-.46c8.97-7.18,15.21-19.48,16.29-32.09.91-10.87-2.02-20.73-8.27-27.76-4.4-4.94-14.44-20.28-21.97-32.54-.97-4.39-3.16-16.84-3.87-41.95-.02-.81-.02-1.58,0-2.31.74.35,1.49.73,2.19,1.13l31.11,40.53.19.25c5.73,7.83,25.29,34.62,42.09,58.33l1.19-.92,1.2-.91c-16.8-23.69-36.34-50.45-42.06-58.27l-31.52-41.07-.18-.24-.26-.15c-1.52-.88-3.26-1.72-4.77-2.28l-1.82-.68-.2,1.92c-.15,1.4-.2,3-.16,4.75.73,25.85,3.04,38.52,4,42.77l.05.24.13.21c5.87,9.57,17.19,27.32,22.42,33.19,5.69,6.4,8.36,15.46,7.51,25.5-1,11.83-6.81,23.33-15.16,30.01l-.59.46c-10.67,8.56-26.79,21.5-67.85,21.5-36.54,0-217.45,3.47-219.22,3.5l-178.47,3.88c-5.11.12-9.91-1.77-13.59-5.33-3.67-3.55-5.72-8.31-5.79-13.41l-.67-54.11-.26-21.45c-.03-1.18-1.09-29.05-30.4-46.48-22.83-13.57-43.7-14.13-54.1-13.26-1.12.09-2.19.52-2.93,1.18l-.34.3-.11.44c-1.21,4.56-4.21,8.6-8.23,11.08-4.4,2.7-9.76,3.46-14.73,2.09l-35.03-9.63-.37-.15c-.64-.2-1.39-.36-2.1-.44l-1.48-.17-.18,1.48c-.15,1.25-.16,2.77-.04,4.51l.04.54-1,146.72c-.1,4.35-.83,26.65-5.47,38.24Z" stroke="#000" stroke-width="8" fill="none"/>
</svg>