<?xml version="1.0" encoding="UTF-8" standalone="no"?>
<svg xmlns="http://www.w3.org/2000/svg" height="360.00" viewBox="0 0 460.00 360.00" width="460.00" version="1.1">
<path stroke-linejoin="round" d="M 30,20 L 400,20 C 414,20 426,32 426,46 L 426,90 C 426,104 438,116 452,116 L 452,116 C 452,116 452,116 452,130 L 452,180 C 452,194 440,206 426,206 L 390,206 C 376,206 364,218 364,232 L 364,270 C 364,284 376,296 390,296 L 426,296 C 440,296 452,308 452,322 L 452,322 C 452,322 452,322 452,336 L 452,336 C 452,350 440,362 426,362 L 30,362 C 16,362 4,350 4,336 L 4,296 C 4,282 16,270 30,270 L 60,270 C 74,270 86,258 86,244 L 86,196 C 86,182 74,170 60,170 L 30,170 C 16,170 4,158 4,144 L 4,46 C 4,32 16,20 30,20 Z" stroke="#000" stroke-width="8" fill="none"/>
</svg>
