<?xml version="1.0" encoding="UTF-8" standalone="no"?>
<svg xmlns="http://www.w3.org/2000/svg" height="360.00" viewBox="0 0 460.00 360.00" width="460.00" version="1.1">
<path stroke-linejoin="round" d="M 60,180 C 60,120 90,66 138,38 C 186,10 248,10 296,38 C 344,66 374,120 380,178 C 386,236 366,296 328,332 C 290,368 236,384 184,372 C 132,360 88,326 66,278 C 44,230 44,174 66,126 C 88,78 132,44 182,34 C 232,24 286,38 324,70 C 362,102 382,152 378,200 C 374,248 350,292 314,318 C 278,344 232,352 190,340 C 148,328 114,298 96,258 C 78,218 78,172 96,132 C 114,92 148,62 188,50 C 228,38 272,46 306,70 C 340,94 360,134 358,174 C 356,214 336,252 304,272 C 272,292 232,294 200,276 C 168,258 148,222 150,186 C 152,150 174,118 204,106 C 234,94 270,102 292,126 C 314,150 316,188 296,212 C 276,236 240,242 216,224 C 192,206 188,170 208,150 C 228,130 264,134 278,156 L 60,180 Z" stroke="#000" stroke-width="8" fill="none"/>
</svg>
