<?xml version="1.0" encoding="UTF-8" standalone="no"?>
<svg xmlns="http://www.w3.org/2000/svg" height="420.00" viewBox="0 0 500.00 420.00" width="500.00" version="1.1">
<path stroke-linejoin="round" d="M 50,20 L 320,20 C 334,20 346,28 352,40 L 380,96 C 386,108 398,116 412,116 L 460,116 C 474,116 486,128 486,142 L 486,190 C 486,204 474,216 460,216 L 420,216 C 406,216 394,228 394,242 L 394,262 C 394,276 382,288 368,288 L 330,288 C 316,288 304,300 304,314 L 304,334 C 304,348 292,360 278,360 L 240,360 C 226,360 214,372 214,386 L 214,400 C 214,412 202,420 190,420 L 150,420 C 138,420 126,412 126,400 L 126,382 C 126,368 114,356 100,356 L 60,356 C 46,356 34,344 34,330 L 34,300 C 34,286 22,274 8,274 L 8,274 C 8,274 8,274 8,260 L 8,200 C 8,186 20,174 34,174 L 70,174 C 84,174 96,162 96,148 L 96,110 C 96,96 84,84 70,84 L 40,84 C 26,84 14,72 14,58 L 14,42 C 14,28 26,16 40,16 Z" stroke="#000" stroke-width="8" fill="none"/>
</svg>
