<?xml version="1.0" encoding="UTF-8" standalone="no"?>
<svg xmlns="http://www.w3.org/2000/svg" height="330.00" viewBox="0 0 470.00 330.00" width="470.00" version="1.1">
<path stroke-linejoin="round" d="M 40,165 C 40,103 72,47 124,19 C 176,-9 242,-7 294,21 C 346,49 378,105 380,165 C 382,225 352,283 304,315 C 256,347 192,353 140,331 C 88,309 52,261 42,207 C 40,193 40,179 40,165 Z M 200,60 C 236,60 270,78 292,108 C 314,138 320,178 308,212 C 296,246 268,272 234,280 C 200,288 162,278 138,254 C 114,230 106,196 116,166 C 126,136 152,114 182,108 C 198,104 216,106 230,114 C 244,122 254,136 256,152 C 258,168 252,184 240,194 C 228,204 212,206 198,200 C 184,194 174,180 174,166 C 174,152 182,138 194,132 C 206,126 220,130 228,140 C 236,150 234,164 224,170 C 214,176 202,172 196,162 L 200,60 Z" stroke="#000" stroke-width="8" fill="none"/>
</svg>
