<?xml version="1.0" encoding="UTF-8" standalone="no"?>
<svg xmlns="http://www.w3.org/2000/svg" height="290.00" viewBox="0 0 430.00 290.00" width="430.00" version="1.1">
<path stroke-linejoin="round" d="M 30,70 C 30,48 48,30 70,30 L 190,30 C 212,30 230,48 230,70 L 230,96 C 230,118 248,136 270,136 L 370,136 C 392,136 410,154 410,176 L 410,210 C 410,232 392,250 370,250 L 290,250 C 268,250 250,268 250,290 L 250,290 C 250,290 250,290 238,290 L 70,290 C 48,290 30,272 30,250 L 30,220 C 30,198 12,180 12,180 L 12,180 C 12,180 12,180 12,168 L 12,110 C 12,88 20,70 30,70 Z" stroke="#000" stroke-width="8" fill="none"/>
</svg>
