<?xml version="1.0" encoding="UTF-8" standalone="no"?>
<svg xmlns="http://www.w3.org/2000/svg" viewBox="0 0 920 543.65955" version="1.1">
<path stroke-linejoin="round" d="m 723.72379,404.71306 -150.61374,-101.82337 -7.42462,-6.71752 c 0,0 -51.94125,-52.01477 -53.38657,-54.80077 -1.44532,-2.786 -0.95013,-4.01962 0,-5.65686 0.95013,-1.63724 2.05815,-1.97147 4.94975,-2.82842 2.8916,-0.85695 7.85751,-1.01387 12.37437,-0.70711 4.51686,0.30676 7.41433,0.87871 14.49569,2.82843 7.08136,1.94972 20.5908,7.68845 27.57716,9.89949 6.98636,2.21104 9.95793,3.39508 14.14214,3.88909 4.18421,0.49401 6.88583,0.43795 10.6066,-0.35356 3.72077,-0.79151 7.85159,-1.97008 11.31371,-4.59619 3.46212,-2.62611 6.7432,-6.79996 8.48528,-10.96015 1.74208,-4.16019 2.30902,-6.63981 2.26777,-11.58148 -0.0412,-4.94167 -0.4536,-9.13009 -2.97488,-17.76346 -2.52132,-8.63337 -10.86062,-26.13385 -15.20279,-34.29468 -4.34217,-8.16083 -5.47258,-11.70778 -9.54594,-15.20279 -4.07336,-3.49501 -8.62154,-4.98853 -13.08148,-5.65686 -4.45994,-0.66833 -9.39297,-0.13353 -12.72792,1.41422 -3.33495,1.54775 -5.27929,3.81219 -6.71752,6.36396 -1.43823,2.55177 -1.44497,3.20757 -1.76776,8.13173 -0.32279,4.92416 1.76776,21.2132 1.76776,21.2132 0,0 0.19209,5.42581 -1.23743,7.42462 -1.42952,1.99881 -3.07874,2.94124 -6.01041,4.06587 -2.93167,1.12463 -11.84404,0.88388 -11.84404,0.88388 l -90.86322,-2.12132 c 0,0 -3.53553,0.11785 -11.31371,-0.35355 -7.77817,-0.47141 -10.96015,-1.41422 -10.96015,-1.41422 l -98.6414,-16.97056 c 0,0 -11.762,0.27512 -16.08668,1.76777 -4.32467,1.49265 -7.40461,3.54098 -10.6066,6.18718 -3.20199,2.6462 -6.89429,10.42983 -6.89429,10.42983 l -14.84924,38.89087 c 0,0 -2.88575,7.07146 -4.94975,9.19239 -2.064,2.12093 -2.70724,2.73478 -5.3033,3.88908 -2.59606,1.1543 -6.76786,2.30566 -10.25305,2.12132 -3.08913,-0.16339 -6.16598,-1.27109 -8.83884,-2.82842 -3.60303,-2.09929 -9.19238,-8.48528 -9.19238,-8.48528 l -33.94113,-44.19418 c 0,0 -17.43563,-18.2544 -26.87006,-26.87006 -9.43443,-8.61566 -18.84651,-16.98109 -29.69848,-24.74873 -10.85197,-7.76764 -23.77166,-15.34288 -35.35534,-21.56676 -11.58368,-6.22388 -23.198182,-11.33787 -33.941127,-15.9099 -10.742945,-4.57203 -23.799433,-8.426894 -30.405591,-11.667264 -6.606158,-3.24037 -6.596431,-3.672343 -8.899495,-5.760408 -2.303064,-2.088065 -3.535834,-3.365929 -4.492641,-5.906854 -0.956807,-2.540925 -1.849021,-6.546625 -1.457107,-9.192388 0.391914,-2.645763 0.961282,-4.247833 2.474874,-6.363961 1.513592,-2.116128 2.801592,-4.522118 5.467514,-6.156854 2.665922,-1.634736 7.233809,-3.288984 10.192388,-3.889088 2.958579,-0.600104 5.562043,-0.01131 8.381728,0.5 2.819685,0.511306 5.81017,1.756791 8.485282,3.181981 2.675112,1.42519 4.213484,2.801168 7.424621,5.303301 3.211137,2.502133 4.488585,4.277118 11.667262,9.899495 7.178677,5.622377 94.752312,65.40738 94.752312,65.40738 0,0 7.13372,4.41669 10.96015,5.65685 3.82643,1.24016 7.39853,1.61061 11.66726,1.76777 4.26873,0.15716 7.79906,0.22507 13.78859,-1.06066 5.98953,-1.28573 14.49558,-5.24463 21.56675,-7.77818 7.07117,-2.53355 15.27642,-6.29079 20.85965,-7.42462 5.58323,-1.13383 7.52855,-0.78841 12.02082,-0.7071 4.49227,0.0813 14.84924,1.41421 14.84924,1.41421 l 179.95868,31.1127 c 0,0 7.98431,1.35377 11.3137,0.7071 3.32939,-0.64667 5.9363,-2.1361 8.30851,-4.06586 2.3722,-1.92976 5.48008,-7.24784 5.48008,-7.24784 l 20.50609,-60.457634 c 0,0 3.62075,-7.254317 6.36396,-9.899495 2.74321,-2.645178 5.24239,-4.900321 8.6924,-6.333631 3.45001,-1.43331 5.46938,-1.654391 10.0637,-2.651651 4.59432,-0.99726 14.83148,2.444544 14.83148,2.444544 l 154.85638,93.161317 c 0,0 6.69803,5.34523 10.6066,9.8995 3.90857,4.55427 8.48529,12.02081 8.48529,12.02081 l 79.90306,173.59472 c 0,0 1.7455,3.70431 2.82843,4.59619 1.08293,0.89188 1.42815,0.94743 2.82843,1.06066 1.40028,0.11323 5.3033,-1.06066 5.3033,-1.06066 0,0 5.1237,-2.23861 7.42462,-2.47487 2.30092,-0.23626 3.16973,-0.37421 5.48008,0.7071 2.31035,1.08131 2.84065,1.98441 6.18718,6.18718 3.34653,4.20277 9.80744,15.22204 12.72792,19.97577 2.92048,4.75373 2.97129,4.10987 5.65686,8.83884 2.68557,4.72897 9.89949,19.79899 9.89949,19.79899 l 18.38478,45.25483 c 0,0 1.7382,7.59792 1.06066,11.31371 -0.67754,3.71579 -2.24386,7.56507 -4.41942,9.8995 -2.17556,2.33442 -4.41722,3.99846 -7.07107,5.3033 -2.65385,1.30484 -5.44336,2.27893 -9.01561,2.82842 -3.57225,0.54949 -7.21421,0.35256 -10.42982,-0.17677 -3.21561,-0.52934 -8.30851,-3.00521 -8.30851,-3.00521 z" stroke="#000" stroke-width="8" fill="none"/>
<path stroke-linejoin="round" d="M 1782.782,1308.1105 C 1746.953,1281.7619 1707.3822,1260.1363 1671.7544,1234.112 C 1667.5092,1231.0111 1664.8855,1225.4852 1663.1628,1220.7349 C 1662.2265,1218.153 1662.5142,1214.4882 1663.7772,1212.1155 C 1665.391,1209.0837 1668.5332,1205.735 1671.7932,1204.5219 C 1676.4873,1202.7752 1682.3477,1203.1835 1687.6396,1203.2363 C 1703.403,1203.3936 1720.3832,1207.4946 1734.959,1205.1521 C 1739.7716,1204.3786 1744.4278,1198.4755 1745.8049,1193.8886 C 1747.6615,1187.7046 1746.391,1179.5785 1744.6602,1172.839 C 1741.24,1159.5212 1736.8883,1145.905 1730.3814,1134.7891 C 1728.7553,1132.0112 1721.3442,1129.5357 1718.1109,1129.969 C 1714.2487,1130.4866 1710.5585,1134.1884 1709.4929,1137.3409 C 1707.9354,1141.9491 1712.9293,1148.811 1712.3919,1154.4395 C 1712.0726,1157.7837 1709.645,1162.2243 1706.4956,1163.4875 C 1696.7414,1167.3996 1684.6596,1169.2164 1673.6811,1169.9653 C 1666.8889,1170.4287 1659.845,1168.7952 1653.1838,1167.1245 C 1644.3292,1164.9039 1636.1551,1159.8182 1627.1338,1158.2914 C 1573.0287,1149.1349 1515.0891,1140.6282 1460.6594,1134.6387 C 1454.1199,1133.9191 1445.9393,1136.5844 1440.7421,1140.1745 C 1436.4717,1143.1243 1433.1962,1147.5809 1430.7339,1151.818 C 1421.3221,1168.0139 1421.6744,1190.8061 1413.9269,1201.8604 C 1408.8828,1209.0577 1399.6359,1211.3617 1391.2032,1210.8975 C 1386.9113,1210.6612 1382.3419,1207.0011 1379.4662,1203.4677 C 1370.2759,1192.1753 1363.1031,1177.9936 1353.734,1166.5999 C 1337.6108,1146.9927 1321.6791,1128.1612 1302.446,1111.8147 C 1287.4152,1099.0397 1269.7579,1088.3441 1252.2135,1079.0554 C 1236.5991,1070.7884 1219.501,1065.3728 1203.5127,1057.7981 C 1196.9931,1054.7094 1189.1467,1052.0068 1184.6896,1047.0651 C 1181.7692,1043.8273 1180.6853,1037.6052 1181.3802,1033.2594 C 1182.1377,1028.5217 1185.7475,1022.1374 1189.7455,1019.9112 C 1196.1382,1016.3517 1207.1838,1016.2343 1213.2673,1020.5798 C 1248.4584,1045.717 1283.9926,1074.4524 1320.7463,1099.5794 C 1325.8689,1103.0814 1332.4227,1104.6795 1338.4926,1105.5207 C 1344.3794,1106.3366 1350.7633,1105.7887 1356.6165,1104.5508 C 1362.9191,1103.2178 1369.032,1100.4727 1374.9601,1097.8082 C 1381.2028,1095.0024 1386.664,1091.4696 1393.1098,1089.5619 C 1399.5733,1087.6491 1407.1443,1086.1397 1413.9648,1086.9195 C 1478.7417,1094.3252 1539.5962,1103.6263 1603.9087,1112.084 C 1614.3851,1113.4616 1622.2317,1107.0391 1624.6744,1099.3399 C 1632.071,1076.0265 1636.0401,1051.7312 1644.4772,1028.9662 C 1645.9273,1025.0535 1648.8061,1021.5002 1651.9144,1018.7931 C 1654.7458,1016.327 1658.3839,1014.2051 1661.9711,1013.2233 C 1665.4211,1012.2789 1669.8366,1011.9461 1673.4721,1012.364 C 1678.0239,1012.8873 1682.9442,1013.8537 1686.8581,1016.2702 C 1737.854,1047.7563 1791.5347,1077.6325 1842.9956,1108.1267 C 1846.976,1110.4854 1849.9694,1114.4036 1852.63,1118.1666 C 1857.2474,1124.6971 1861.3126,1131.7697 1864.8294,1139.0074 C 1895.7784,1202.7011 1924.3109,1268.0071 1956.0275,1330.9607 C 1957.8371,1334.5527 1961.7735,1337.2444 1965.408,1338.6441 C 1970.4043,1340.5684 1976.5674,1339.6142 1981.9197,1340.9326 C 1985.5458,1341.8257 1989.4933,1343.0236 1992.3431,1345.2787 C 1995.4201,1347.7136 1998.0337,1351.3114 1999.7,1355.0029 C 2011.3532,1380.8186 2023.1867,1407.2356 2031.4283,1433.6791 C 2032.8271,1438.1672 2031.2342,1444.0603 2028.621,1447.7976 C 2025.6854,1451.9958 2015.0833,1458.2086 2009.9969,1458.6033 C 2003.3306,1459.1206 1989.563,1453.2028 1984.6675,1449.8887 C 1913.511,1401.7167 1853.5506,1360.1536 1782.782,1308.1105 z" stroke="#000" stroke-width="8" fill="none"/>
<path stroke-linejoin="round" d="M 2012.8521,1391.3911 C 2016.8784,1405.3282 2022.677,1419.4046 2025.1267,1433.2992 C 2025.6616,1436.3331 2023.5341,1439.5497 2022.0015,1442.2733 C 2020.2057,1445.4645 2018.1447,1449.4503 2015.1417,1451.0434 C 2012.0523,1452.6823 2007.3202,1452.8553 2003.7246,1451.9696 C 1997.6172,1450.4652 1991.5289,1447.2777 1986.0324,1443.8732 C 1972.1804,1435.2935 1958.8079,1425.7252 1945.6794,1416.0169 C 1938.8036,1410.9323 1932.964,1404.4435 1926.0192,1399.4948 C 1920.2167,1395.3602 1913.3012,1392.8555 1907.4373,1388.7667 C 1862.9758,1357.7637 1820.1427,1324.077 1775.0432,1294.2193 C 1764.2307,1287.0611 1728.791,1267.9495 1717.6027,1261.6952" stroke="#000" stroke-width="8" fill="none"/>
</svg>