<?xml version="1.0" encoding="UTF-8" standalone="no"?>
<svg xmlns="http://www.w3.org/2000/svg" height="330.00" viewBox="0 0 470.00 330.00" width="470.00" version="1.1">
<path stroke-linejoin="round" d="M 50,28 C 90,12 136,8 180,20 C 224,32 262,60 288,98 C 314,136 324,182 316,226 C 308,270 282,310 246,332 C 210,354 166,360 124,346 C 82,332 48,302 30,262 C 12,222 10,176 26,136 C 42,96 74,64 112,48 C 130,40 150,36 170,36 C 190,36 210,42 226,54 C 242,66 254,84 258,104 C 262,124 258,146 246,162 C 234,178 216,188 196,190 C 176,192 156,184 142,170 C 128,156 122,136 126,118 C 130,100 144,84 162,78 C 180,72 200,78 212,92 C 224,106 226,126 218,142 C 210,158 194,166 178,164 C 162,162 148,150 144,134 C 140,118 148,100 162,94 C 176,88 194,96 200,110 C 206,124 200,140 188,146 L 50,28 Z" stroke="#000" stroke-width="8" fill="none"/>
</svg>
