<?xml version="1.0" encoding="UTF-8" standalone="no"?>
<svg xmlns="http://www.w3.org/2000/svg" viewBox="0 0 1103 538" version="1.1">
<path stroke-linejoin="round" d="m56.788 337.31c0.95445-4.956 5.5134-13.783 5.5134-13.783l47.966-82.149s6.825-8.2324 10.475-9.3728 6.157-2.3473 9.2113-1.6263c3.0543 0.72102 6.821 3.5109 8.9829 6.037s3.8594 8.2701 3.8594 8.2701l17.643 67.263s5.6423 10.164 9.3728 14.335 8.7858 8.1898 12.681 10.475 4.6171 2.4482 9.9241 3.8594 22.054 3.308 22.054 3.308l65.609 2.7567 86.009 3.8594 71.674 3.308h82.701l69.469-2.2053 44.658 0.55133s7.723-1.1817 10.475-3.8594 4.2686-7.2192 4.4107-11.027-1.2454-7.5982-3.308-10.475-8.2701-6.0647-8.2701-6.0647l-152.17-58.993s-11.484-2.4487-18.746-2.6621-14.005 0.66514-24.81 1.5594-39.696 6.6161-39.696 6.6161l-92.625 13.783s-9.0144-0.12893-15.437-2.2054-11.889-3.615-22.054-11.578-44.658-70.571-44.658-70.571-3.0792-7.4489-1.1027-17.643 4.2357-10.835 9.3728-15.827 19.848-5.1235 19.848-5.1235 60.867 8.6075 97.587 15.989 122.4 29.221 122.4 29.221 15.393 2.6653 23.156 2.7567c7.7629 0.0914 15.874-0.11697 23.156-2.2054s12.446-5.0707 19.848-9.9241 23.708-19.848 23.708-19.848 80.871-88.476 86.009-92.074 7.0171-7.4067 18.612-11.255 16.613-3.8185 24.944-4.7337 20.206-0.32494 27.016 0.55134 9.5382 0.58005 13.783 3.308 7.9425 7.796 9.9241 12.681 1.654 15.437 1.654 15.437l-0.55134 121.85s-0.11693 10.439 2.2054 17.643 3.8887 16.378 12.681 27.016 13.773 12.468 19.848 16.54 105.6 47.847 110.82 49.069 11.459 1.6401 15.989 0 8.7232-3.9417 11.484-7.4904 3.6482-8.5124 4.5053-13.46 0.26055-12.133-1.654-15.989-71.123-103.65-71.123-103.65-4.6993-14.178-3.308-21.502 4.7949-15.073 10.019-19.848 12.774-8.3921 19.982-10.609c7.7016-2.369 15.986-3.085 24.031-2.6229 8.2789 0.47555 17.061 1.7672 24.259 5.5134s13.112 10.919 17.643 15.989 9.9241 13.783 9.9241 13.783l73.879 110.82s9.3085 19.5 12.129 29.221 4.4931 18.207 4.9621 28.67-0.8348 23.3-2.7567 33.632-3.9334 18.336-8.2701 28.118-11.429 20.747-18.194 29.772-10.484 15.578-22.053 24.259c-11.569 8.6814-27.362 18.913-48.518 23.708s-15.975 2.2071-38.594 2.7567-97.036-2.2054-97.036-2.2054l-682.01-7.1674s-18.077-0.70749-23.708-3.308c-5.631-2.6005-8.0785-5.2052-9.9241-8.8214" stroke="#000" stroke-width="8" fill="none"/>
</svg>