<?xml version="1.0" encoding="UTF-8" standalone="no"?>
<svg xmlns="http://www.w3.org/2000/svg" height="350.00" viewBox="0 0 500.00 350.00" width="500.00" version="1.1">
<path stroke-linejoin="round" d="M 20,50 C 20,30 36,14 56,14 L 400,14 C 420,14 436,30 436,50 L 436,76 C 436,96 452,112 472,112 L 480,112 C 492,112 500,120 500,132 L 500,178 C 500,190 490,198 478,198 L 436,198 C 416,198 400,214 400,234 L 400,258 C 400,278 384,294 364,294 L 320,294 C 300,294 284,310 284,330 L 284,330 C 284,342 274,350 262,350 L 200,350 C 188,350 178,342 178,330 L 178,310 C 178,290 162,274 142,274 L 100,274 C 80,274 64,258 64,238 L 64,218 C 64,198 48,182 28,182 L 20,182 C 8,182 0,174 0,162 L 0,100 C 0,88 8,80 20,80 L 20,50 Z" stroke="#000" stroke-width="8" fill="none"/>
</svg>
