<?xml version="1.0" encoding="UTF-8" standalone="no"?>
<svg xmlns="http://www.w3.org/2000/svg" height="290.00" viewBox="0 0 310.00 290.00" width="310.00" version="1.1">
<path stroke-linejoin="round" d="M 154,16 C 192,16 228,32 254,60 C 280,88 294,126 292,164 C 290,202 272,238 244,262 C 216,286 178,296 142,288 C 106,280 74,258 54,226 C 34,194 28,154 38,118 C 48,82 72,52 104,36 C 120,28 138,22 156,20 C 174,18 192,22 208,30 C 224,38 238,52 246,68 C 254,84 256,104 250,120 C 244,136 232,150 216,156 C 200,162 182,160 168,150 C 154,140 146,124 148,108 C 150,92 162,78 176,74 C 190,70 206,76 214,88 C 222,100 220,116 210,124 C 200,132 186,130 178,120 C 170,110 172,96 182,90 L 154,16 Z" stroke="#000" stroke-width="8" fill="none"/>
</svg>
